<svg width="43" height="52" viewBox="0 0 43 52" fill="none" xmlns="http://www.w3.org/2000/svg">
<path d="M1.97471 23.9643C1.91216 17.1499 7.3798 11.5112 14.1877 11.8178L13.2471 32.7076C12.9534 39.2285 7.42911 44.2768 0.908139 43.9832L-0.000111235 43.9423C1.56973 36.4471 2.0364 30.6858 1.97471 23.9643Z" fill="#2909A7"/>
<path d="M29.9796 24.2341C29.917 17.4196 35.3847 11.781 42.1926 12.0876L41.2519 32.9773C40.9583 39.4983 35.434 44.5466 28.913 44.2529L28.0048 44.212C29.5746 36.7169 30.0413 30.9556 29.9796 24.2341Z" fill="#9747FF"/>
<path d="M15.2802 12.7676C15.5664 5.88373 21.5242 0.501966 28.3889 1.08942L30.5205 1.27183L27.1871 40.2238C26.6306 46.7276 20.907 51.5488 14.4032 50.9922L11.3173 50.7282C13.3463 48.0019 14.6739 27.3466 15.2802 12.7676Z" fill="#F58B0E"/>
<path d="M11.4298 21.7927C11.6807 21.7927 11.8662 21.8036 11.9862 21.8255C12.1171 21.8364 12.2589 21.8855 12.4117 21.9727C12.5753 22.06 12.6899 22.2073 12.7554 22.4146C12.8208 22.6219 12.8535 22.9001 12.8535 23.2492C12.8535 23.5983 12.8208 23.8765 12.7554 24.0838C12.6899 24.2911 12.5753 24.4384 12.4117 24.5257C12.248 24.6021 12.1008 24.6512 11.9698 24.673C11.8498 24.6839 11.6589 24.6893 11.3971 24.6893H6.38934V26.3422H9.61326C9.8751 26.3422 10.066 26.3531 10.186 26.375C10.317 26.3859 10.4642 26.435 10.6279 26.5222C10.9116 26.6859 11.0534 27.1168 11.0534 27.8151C11.0534 28.5788 10.8461 29.0315 10.4315 29.1734C10.257 29.2279 9.97875 29.2552 9.5969 29.2552H6.38934V32.3482C6.38934 32.61 6.37843 32.801 6.35661 32.921C6.3457 33.041 6.29661 33.1828 6.20933 33.3465C6.05659 33.641 5.63109 33.7883 4.93285 33.7883C4.16915 33.7883 3.72183 33.581 3.59091 33.1665C3.52545 32.9919 3.49272 32.7137 3.49272 32.3318V23.2329C3.49272 22.6764 3.59637 22.3 3.80366 22.1037C4.01095 21.8964 4.40371 21.7927 4.98195 21.7927H11.4298Z" fill="white"/>
<path d="M22.538 22.2526L26.9566 31.3843C27.1421 31.7553 27.2348 32.0335 27.2348 32.2189C27.2348 32.6117 26.9184 32.9663 26.2856 33.2827C25.9147 33.4681 25.6201 33.5609 25.4019 33.5609C25.1946 33.5609 25.0201 33.5118 24.8782 33.4136C24.7473 33.3154 24.6491 33.2117 24.5837 33.1026C24.5291 32.9935 24.4473 32.8299 24.3382 32.6117L23.4872 30.8443H18.9541L18.1031 32.6117C17.994 32.8299 17.9067 32.9881 17.8413 33.0863C17.7867 33.1845 17.6885 33.2881 17.5467 33.3972C17.4158 33.4954 17.2412 33.5445 17.023 33.5445C16.8157 33.5445 16.5266 33.4518 16.1557 33.2663C15.5229 32.9608 15.2065 32.6117 15.2065 32.2189C15.2065 32.0335 15.2992 31.7553 15.4847 31.3843L19.9033 22.2362C20.0233 21.9853 20.2033 21.7835 20.4433 21.6307C20.6942 21.478 20.9561 21.4016 21.2288 21.4016C21.818 21.4016 22.2544 21.6853 22.538 22.2526ZM21.2125 26.1802L20.1324 28.4222H22.3089L21.2125 26.1802Z" fill="white"/>
<path d="M41.5863 24.4742C41.6648 24.6213 41.709 24.7538 41.7188 24.8716C41.7384 24.9893 41.7482 25.161 41.7482 25.3867V33.5551C41.7482 34.2321 41.5618 34.6295 41.1889 34.7472C41.0025 34.8061 40.767 34.8355 40.4825 34.8355C40.1979 34.8355 39.9723 34.811 39.8055 34.7619C39.6387 34.7129 39.5111 34.654 39.4228 34.5853C39.3345 34.5166 39.2658 34.4185 39.2168 34.2909C39.1677 34.1241 39.1432 33.869 39.1432 33.5256V28.5952C38.8979 28.8993 38.5397 29.385 38.0688 30.0522C37.5978 30.7096 37.2985 31.1217 37.171 31.2885C37.0434 31.4553 36.9551 31.5731 36.9061 31.6417C36.857 31.7006 36.7344 31.7889 36.5381 31.9067C36.3517 32.0146 36.1456 32.0686 35.92 32.0686C35.7041 32.0686 35.503 32.0195 35.3165 31.9214C35.1399 31.8134 35.0124 31.7104 34.9339 31.6123L34.8161 31.4504C34.6199 31.2051 34.2323 30.6851 33.6534 29.8903C33.0745 29.0857 32.7605 28.654 32.7115 28.5952V33.5551C32.7115 33.7807 32.7017 33.9524 32.6821 34.0702C32.6722 34.1781 32.6281 34.3008 32.5496 34.4381C32.4024 34.703 32.0198 34.8355 31.4016 34.8355C30.8031 34.8355 30.4302 34.703 30.2831 34.4381C30.2046 34.3008 30.1555 34.1732 30.1359 34.0555C30.1261 33.9377 30.1212 33.7611 30.1212 33.5256V25.3572C30.1212 25.1316 30.1261 24.9648 30.1359 24.8568C30.1555 24.7391 30.2046 24.6066 30.2831 24.4595C30.4302 24.2043 30.8129 24.0768 31.431 24.0768C31.696 24.0768 31.9216 24.1111 32.1081 24.1798C32.3043 24.2387 32.4318 24.3025 32.4907 24.3711L32.579 24.4595L35.92 28.8454C37.588 26.6377 38.7016 25.1806 39.2609 24.4742C39.4277 24.2093 39.8202 24.0768 40.4383 24.0768C41.0663 24.0768 41.449 24.2093 41.5863 24.4742Z" fill="white"/>
</svg>
