<svg width="25" height="25" viewBox="0 0 25 25" fill="none" xmlns="http://www.w3.org/2000/svg">
<path d="M24.25 12.7565C24.2516 11.0545 23.8243 9.37729 23.0043 7.85864C22.1845 6.34022 20.9955 5.02351 19.5349 4.0108L19.1207 3.72359L18.8368 4.14013L17.5868 5.9745L17.3593 6.30839L17.638 6.60093C18.1964 7.18708 18.9652 8.08622 19.623 9.02874C20.2947 9.99107 20.7974 10.9249 20.9067 11.5967C21.1478 13.0793 20.9221 14.5959 20.2543 15.9661C19.5862 17.3367 18.5022 18.5057 17.1268 19.3282C15.7511 20.1509 14.1449 20.5903 12.5012 20.5904C10.8575 20.5906 9.25119 20.1514 7.87539 19.3289C6.49986 18.5066 5.41563 17.3378 4.74728 15.9672C4.0792 14.5972 3.8533 13.0806 4.09411 11.598C4.20323 10.9261 4.70584 9.99203 5.37739 9.02938C6.03511 8.08654 6.80383 7.18708 7.36208 6.60087L7.64075 6.30825L7.41311 5.97439L6.16312 4.14106L5.87923 3.7247L5.46511 4.01184C4.00467 5.02445 2.81579 6.34098 1.99596 7.85919C1.17603 9.37757 0.74866 11.0545 0.750003 12.7563C0.750112 18.821 6.04748 23.6727 12.5 23.6727C18.9524 23.6727 24.2497 18.8211 24.25 12.7565ZM24.25 12.7565L23.75 12.7561H24.25C24.25 12.7562 24.25 12.7564 24.25 12.7565ZM13.625 14.2977H14.125V13.7977L14.125 5.4644V0.756058V0.256058H13.625H11.375H10.875V0.756058V5.4644L10.875 13.7977V14.2977H11.375H13.625Z" fill="white" stroke="white"/>
</svg>
