<svg width="22" height="21" viewBox="0 0 22 21" fill="none" xmlns="http://www.w3.org/2000/svg">
<path d="M19.0262 15.9701C18.5102 15.4994 18.0079 15.0152 17.52 14.518C17.1102 14.1214 16.8634 13.8329 16.8634 13.8329L13.7784 12.4301C15.0135 11.0961 15.6951 9.37895 15.6955 7.60056C15.6955 3.55167 12.2359 0.256104 7.983 0.256104C3.73011 0.256104 0.270508 3.55167 0.270508 7.60056C0.270508 11.6495 3.73011 14.945 7.983 14.945C9.92544 14.945 11.696 14.2525 13.0545 13.1204L14.5276 16.0582C14.5276 16.0582 14.8306 16.2932 15.2471 16.6835C15.6734 17.0644 16.2343 17.5796 16.7719 18.1178L18.2681 19.5783L18.9336 20.2561L21.2705 18.0307L20.5588 17.397C20.1412 17.0067 19.5837 16.4884 19.0262 15.9701ZM7.983 12.8466C4.94538 12.8466 2.47408 10.4932 2.47408 7.60056C2.47408 4.70789 4.94538 2.35452 7.983 2.35452C11.0206 2.35452 13.4919 4.70789 13.4919 7.60056C13.4919 10.4932 11.0206 12.8466 7.983 12.8466Z" fill="black"/>
</svg>
