<svg width="17" height="18" viewBox="0 0 17 18" fill="none" xmlns="http://www.w3.org/2000/svg">
<path d="M0.0625 17.5061H16.9375V14.3811C16.9357 13.2212 16.3129 12.1092 15.2056 11.289C14.0984 10.4688 12.5971 10.0074 11.0312 10.0061H5.96875C4.40286 10.0074 2.90162 10.4688 1.79437 11.289C0.687124 12.1092 0.0642865 13.2212 0.0625 14.3811V17.5061ZM2.59375 4.3811C2.59375 5.2464 2.94015 6.09226 3.58913 6.81172C4.23812 7.53119 5.16055 8.09194 6.23978 8.42308C7.319 8.75421 8.50655 8.84085 9.65225 8.67204C10.798 8.50323 11.8503 8.08655 12.6763 7.4747C13.5024 6.86284 14.0649 6.08329 14.2928 5.23462C14.5207 4.38596 14.4037 3.50629 13.9567 2.70686C13.5096 1.90744 12.7526 1.22416 11.7813 0.743424C10.8101 0.262693 9.66815 0.00610352 8.5 0.00610352C6.93357 0.00610352 5.43129 0.46704 4.32365 1.28751C3.21601 2.10798 2.59375 3.22078 2.59375 4.3811Z" fill="white"/>
</svg>
